<svg width="1em" height="1em" viewBox="0 0 24 24" fill="none" xmlns="http://www.w3.org/2000/svg"><path d="M11.066 8.004L11.251 8h7.5a3.25 3.25 0 013.245 3.066l.005.184v7.5a3.25 3.25 0 01-3.066 3.246l-.184.005h-7.5a3.25 3.25 0 01-3.245-3.066L8 18.75v-7.5a3.25 3.25 0 013.066-3.246zM18.751 9.5h-7.5a1.75 1.75 0 00-1.745 1.607l-.006.143v7.5a1.75 1.75 0 001.607 1.745l.144.006h7.5a1.75 1.75 0 001.744-1.607l.006-.143v-7.5a1.75 1.75 0 00-1.75-1.75zm-3.75 1.502a.75.75 0 01.75.75v2.498h2.5a.75.75 0 110 1.5h-2.5v2.502a.75.75 0 11-1.5 0v-2.502h-2.5a.75.75 0 010-1.5h2.5V11.75A.75.75 0 0115 11zm.582-6.768l.052.177.693 2.588h-1.553l-.589-2.2a1.75 1.75 0 00-2.143-1.237L4.798 5.5a1.75 1.75 0 00-1.27 1.997l.033.147L5.5 14.89a1.75 1.75 0 001.5 1.287v1.506a3.252 3.252 0 01-2.895-2.228l-.053-.177-1.941-7.245a3.25 3.25 0 012.121-3.927l.177-.053 7.245-1.941a3.25 3.25 0 013.928 2.121z" fill="#ffffff"></path></svg>