<svg width="1em" height="1em" viewBox="0 0 24 24" fill="none" stroke="#000000" xmlns="http://www.w3.org/2000/svg"><path d="M2.71428 14.4287L21.2857 14.4287C21.6802 14.4287 22 14.1089 22 13.7144V3.71443C22 3.31994 21.6802 3.00014 21.2857 3.00014L2.71428 3.00014C2.3198 3.00014 2 3.31994 2 3.71443V13.7144C2 14.1089 2.3198 14.4287 2.71428 14.4287Z" stroke-width="1.5" stroke-linejoin="round"></path><path d="M3.49219 17.4287H20.635" stroke-width="1.5" stroke-linecap="round" stroke-linejoin="round"></path><path d="M4.91797 20.2285H19.2037" stroke-width="1.5" stroke-linecap="round" stroke-linejoin="round"></path><path d="M12 11.4287C13.6569 11.4287 15 10.0856 15 8.42871C15 6.77186 13.6569 5.42871 12 5.42871C10.3431 5.42871 9 6.77186 9 8.42871C9 10.0856 10.3431 11.4287 12 11.4287Z" stroke-width="1.5" stroke-linecap="round" stroke-linejoin="round"></path><path d="M22.0636 6.65639C21.1164 6.65639 20.208 6.28012 19.5382 5.61034C18.8685 4.94057 18.4922 4.03216 18.4922 3.08496" stroke-width="1.5" stroke-linejoin="round"></path><path d="M2.0625 6.65639C2.53151 6.65639 2.99592 6.56401 3.42923 6.38453C3.86253 6.20505 4.25624 5.94198 4.58788 5.61034C4.91952 5.2787 5.18259 4.88499 5.36207 4.45169C5.54155 4.01838 5.63393 3.55397 5.63393 3.08496" stroke-width="1.5" stroke-linejoin="round"></path><path d="M22.0636 10.9424C21.1164 10.9424 20.208 11.3187 19.5382 11.9884C18.8685 12.6582 18.4922 13.5666 18.4922 14.5138" stroke-width="1.5" stroke-linejoin="round"></path><path d="M2.0625 10.9424C2.53151 10.9424 2.99592 11.0348 3.42923 11.2142C3.86253 11.3937 4.25624 11.6568 4.58788 11.9884C4.91952 12.3201 5.18259 12.7138 5.36207 13.1471C5.54155 13.5804 5.63393 14.0448 5.63393 14.5138" stroke-width="1.5" stroke-linejoin="round"></path></svg>